<svg width="120" height="76" viewBox="0 0 120 76" fill="none" xmlns="http://www.w3.org/2000/svg">
<path d="M90.3818 27.5862C91.8262 29.0328 92.4693 32.3129 91.5294 34.9033C90.7676 37.3591 88.8384 38.4525 87.3148 36.8545L60.2662 11.5408L33.3997 36.8545C31.8711 38.4525 29.9439 37.3591 29.0945 34.9033C28.2454 32.3129 28.7961 29.0328 30.3248 27.5862L58.8218 0.677335C59.7715 -0.225778 60.939 -0.225778 61.8887 0.677335L90.3818 27.5862Z" fill="#051334"/>
<path d="M25.0616 69.3809C23.5256 69.3809 22.7576 68.5889 22.7576 67.0049V47.5649H15.7376C14.4176 47.5649 13.7576 46.9169 13.7576 45.6209C13.7576 44.3489 14.4176 43.7129 15.7376 43.7129H34.3856C35.7056 43.7129 36.3656 44.3489 36.3656 45.6209C36.3656 46.9169 35.7056 47.5649 34.3856 47.5649H27.3656V67.0049C27.3656 68.5889 26.5976 69.3809 25.0616 69.3809ZM37.8915 69.3809C36.3555 69.3809 35.5875 68.6129 35.5875 67.0769V53.4689C35.5875 51.9569 36.3195 51.2009 37.7835 51.2009C39.2475 51.2009 39.9795 51.9569 39.9795 53.4689V54.5849C40.8435 52.5209 42.6915 51.3689 45.5235 51.1289C46.5555 51.0089 47.1315 51.5969 47.2515 52.8929C47.3715 54.1649 46.7475 54.8729 45.3795 55.0169L44.5875 55.0889C41.6355 55.3769 40.1595 56.8889 40.1595 59.6249V67.0769C40.1595 68.6129 39.4035 69.3809 37.8915 69.3809ZM51.7522 47.8889C50.9122 47.8889 50.2522 47.6849 49.7722 47.2769C49.3162 46.8449 49.0882 46.2569 49.0882 45.5129C49.0882 44.7449 49.3162 44.1569 49.7722 43.7489C50.2522 43.3409 50.9122 43.1369 51.7522 43.1369C53.5282 43.1369 54.4162 43.9289 54.4162 45.5129C54.4162 47.0969 53.5282 47.8889 51.7522 47.8889ZM51.7522 69.3449C51.0322 69.3449 50.4802 69.1289 50.0962 68.6969C49.7122 68.2649 49.5202 67.6649 49.5202 66.8969V53.6849C49.5202 52.0529 50.2642 51.2369 51.7522 51.2369C53.2642 51.2369 54.0202 52.0529 54.0202 53.6849V66.8969C54.0202 67.6649 53.8282 68.2649 53.4442 68.6969C53.0602 69.1289 52.4962 69.3449 51.7522 69.3449ZM60.7629 75.8609C59.2749 75.8609 58.5309 75.1049 58.5309 73.5929V53.4689C58.5309 51.9569 59.2629 51.2009 60.7269 51.2009C62.2149 51.2009 62.9589 51.9569 62.9589 53.4689V54.2249C63.4629 53.2889 64.2189 52.5449 65.2269 51.9929C66.2349 51.4169 67.3869 51.1289 68.6829 51.1289C70.2189 51.1289 71.5629 51.5009 72.7149 52.2449C73.8909 52.9889 74.8029 54.0449 75.4509 55.4129C76.0989 56.7569 76.4229 58.3769 76.4229 60.2729C76.4229 62.1449 76.0989 63.7769 75.4509 65.1689C74.8029 66.5369 73.9029 67.5929 72.7509 68.3369C71.5989 69.0809 70.2429 69.4529 68.6829 69.4529C67.4349 69.4529 66.3069 69.1889 65.2989 68.6609C64.3149 68.1089 63.5589 67.3769 63.0309 66.4649V73.5929C63.0309 75.1049 62.2749 75.8609 60.7629 75.8609ZM67.4229 66.0329C68.7669 66.0329 69.8469 65.5529 70.6629 64.5929C71.4789 63.6089 71.8869 62.1689 71.8869 60.2729C71.8869 58.3529 71.4789 56.9249 70.6629 55.9889C69.8469 55.0289 68.7669 54.5489 67.4229 54.5489C66.0789 54.5489 64.9989 55.0289 64.1829 55.9889C63.3669 56.9249 62.9589 58.3529 62.9589 60.2729C62.9589 62.1689 63.3669 63.6089 64.1829 64.5929C64.9989 65.5529 66.0789 66.0329 67.4229 66.0329ZM82.1839 47.8889C81.3439 47.8889 80.6839 47.6849 80.2039 47.2769C79.7479 46.8449 79.5199 46.2569 79.5199 45.5129C79.5199 44.7449 79.7479 44.1569 80.2039 43.7489C80.6839 43.3409 81.3439 43.1369 82.1839 43.1369C83.9599 43.1369 84.8479 43.9289 84.8479 45.5129C84.8479 47.0969 83.9599 47.8889 82.1839 47.8889ZM82.1839 69.3449C81.4639 69.3449 80.9119 69.1289 80.5279 68.6969C80.1439 68.2649 79.9519 67.6649 79.9519 66.8969V53.6849C79.9519 52.0529 80.6959 51.2369 82.1839 51.2369C83.6959 51.2369 84.4519 52.0529 84.4519 53.6849V66.8969C84.4519 67.6649 84.2599 68.2649 83.8759 68.6969C83.4919 69.1289 82.9279 69.3449 82.1839 69.3449ZM97.6387 69.4529C95.6467 69.4529 93.9307 69.0809 92.4907 68.3369C91.0507 67.5929 89.9347 66.5369 89.1427 65.1689C88.3747 63.8009 87.9907 62.1809 87.9907 60.3089C87.9907 58.4849 88.3627 56.8889 89.1067 55.5209C89.8747 54.1529 90.9187 53.0849 92.2387 52.3169C93.5827 51.5249 95.1067 51.1289 96.8107 51.1289C99.3067 51.1289 101.275 51.9209 102.715 53.5049C104.179 55.0889 104.911 57.2489 104.911 59.9849C104.911 60.8729 104.335 61.3169 103.183 61.3169H92.3107C92.6467 64.4609 94.4467 66.0329 97.7107 66.0329C98.3347 66.0329 99.0307 65.9609 99.7987 65.8169C100.591 65.6489 101.335 65.3729 102.031 64.9889C102.655 64.6289 103.183 64.5209 103.615 64.6649C104.047 64.7849 104.347 65.0369 104.515 65.4209C104.707 65.8049 104.731 66.2369 104.587 66.7169C104.467 67.1729 104.131 67.5689 103.579 67.9049C102.739 68.4329 101.767 68.8289 100.663 69.0929C99.5827 69.3329 98.5747 69.4529 97.6387 69.4529ZM96.9907 54.1889C95.6707 54.1889 94.6027 54.5969 93.7867 55.4129C92.9707 56.2289 92.4787 57.3329 92.3107 58.7249H101.167C101.071 57.2609 100.663 56.1449 99.9427 55.3769C99.2467 54.5849 98.2627 54.1889 96.9907 54.1889Z" fill="#051334"/>
<circle cx="60" cy="32.5586" r="10" fill="#051334"/>
<path d="M64.8849 27.9586C65.2424 28.3162 65.2424 28.8919 64.8849 29.2435L62.5273 31.601L63.8121 37.1707L62.9576 38.0313L60.6061 33.5283L58.2424 35.8919L58.4606 37.3889L57.8121 38.0313L56.7455 36.1041L54.8121 35.0313L55.4546 34.3768L56.9697 34.601L59.3152 32.2556L54.8121 29.8859L55.6727 29.0313L61.2424 30.3162L63.6 27.9586C63.9394 27.6071 64.5455 27.6071 64.8849 27.9586Z" fill="white"/>
</svg>
